<?xml version="1.0" encoding="utf-8"?>
<!-- Generator: Adobe Illustrator 24.2.1, SVG Export Plug-In . SVG Version: 6.00 Build 0)  -->
<svg version="1.1" id="Layer_1" xmlns="http://www.w3.org/2000/svg" xmlns:xlink="http://www.w3.org/1999/xlink" x="0px" y="0px"
	 viewBox="0 0 1031.1 543.5" style="enable-background:new 0 0 1031.1 543.5;" xml:space="preserve">
<style type="text/css">
	.st0{fill:#333333;}
	.st1{fill:#006BB6;}
	.st2{fill:#FF6454;}
</style>
<g>
	<path class="st0" d="M8.3,340.7c0.2-1.1,0.8-2.5,1.8-4.3c1-1.8,2.3-3.5,3.9-5c1.5-1.5,3.1-2.7,4.8-3.7c1.6-0.9,3.1-1,4.5-0.3
		l24.8,12.7c-0.5,0.5-0.5,1.5,0,2.9c0.5,1.4,0.9,2.8,1.4,4.2c0.5,1.4,1.1,2.7,2,4.1c0.9,1.3,2.1,2.6,3.8,4c1.6,1.3,3.8,2.6,6.4,4
		c2.3,1.2,5.1,2.2,8.5,3.2c3.4,1,6.6,1.5,9.8,1.5c3.2,0.1,5.9-0.4,8.3-1.3c2.4-0.9,3.7-2.7,3.9-5.3c0.2-0.3,0.2-0.6,0-0.9
		c-0.2-0.3-0.2-0.6,0-0.9l0.6-0.6l-1.5-3.9l-27-43.1c-0.5-1.2-0.7-3.6-0.5-7c0.2-3.5,0.6-6.6,1.1-9.5c1.7-9,5.8-15.4,12.5-19.3
		c6.6-3.9,14.7-5.8,24.2-5.6c9.5,0.1,19.9,1.9,31.3,5.2c11.3,3.4,22.5,7.9,33.6,13.5l3.5,1.8c1.2,0.6,2.5,1.3,3.9,2.1
		c1.3,0.8,2.9,1.6,4.5,2.5l9.2,4.7l0.2,0.1c3.9,5.7,7.1,10.7,9.7,15.1c2.6,4.4,3.5,9.3,2.9,14.8c-0.2,1.6-1.3,3.8-3.2,6.5
		c-1.9,2.7-4.1,5.2-6.8,7.6c-2.6,2.3-5.5,4.1-8.6,5.2c-3.1,1.1-6,1-8.8-0.4c-0.5-0.2-0.9-0.5-1.3-0.8c-0.4-0.3-0.8-0.5-1.1-0.7
		l-1.1-0.6c-1-0.7-2.7-1.9-5.1-3.7c-2.4-1.8-4.8-3.6-7.3-5.5c-2.5-1.9-4.9-3.6-7.1-5.1c-2.2-1.5-3.6-2.4-4.3-2.7
		c-0.2-0.5-0.2-0.9-0.2-1.3c0-0.4,0-0.9-0.1-1.5l0.8-1c0.2-0.3,0.2-0.8,0.2-1.6l0.1-0.2c0.1-0.9,0.4-1.7,1-2.2
		c0.6-0.6,0.8-1.7,0.7-3.3l-6.1-8.6c-6.4-3.3-12.6-5.4-18.4-6.3c-5.8-0.9-11.2-0.3-16.1,1.8l-0.4,6.5c1.6,2.6,3.2,4.9,4.8,7.1
		c1.6,2.2,3.1,4.4,4.5,6.6c3.4,4.8,6.6,9.5,9.7,14c3.1,4.6,5.7,9,8,13.3c2.2,4.3,3.9,8.6,5.1,12.7c1.2,4.2,1.4,8.4,0.8,12.7
		c-1.8,8.5-6.1,14.8-12.9,18.8c-6.8,4-14.9,6.1-24.4,6.4c-9.5,0.3-20-1.1-31.3-4.2c-11.4-3.1-22.5-7.4-33.4-13
		c-4.1-2.1-8.1-4.9-11.9-8.4c-3.8-3.5-7.1-7.2-9.8-11.1c-2.7-3.9-4.8-7.9-6.3-11.9C8.2,347.2,7.8,343.7,8.3,340.7z"/>
	<path class="st0" d="M236.5,407.1l-14.4-5.9l-3,3.6c-5.8,7.2-10.2,12.9-13.1,17.2c-2.9,4.2-5.5,7.2-7.6,9l-0.1,0.2
		c-2.9,3.5-5.9,6.5-9,8.9c-3,2.5-6.6,2.9-10.6,1.4c-1.6-0.6-3.8-2.3-6.7-5.1c-2.8-2.8-5.6-5.9-8.3-9.3c-2.7-3.4-5.1-6.7-7.2-10
		c-2.1-3.3-3.2-5.6-3.2-7.1c0.3-2.3,0.8-4.3,1.5-6c0.7-1.7,2-3.2,3.9-4.3c1.4-0.9,3.2-2.7,5.4-5.3c2.2-2.6,4.6-5.6,7.3-9l4.8-5.4
		l2.5-2.9l1.1-1.5c0.7-0.8,1.2-1.4,1.7-1.6c1.7-1.7,3.9-3.9,6.4-6.4c2.5-2.6,5-5.2,7.4-7.8c2.5-2.7,4.7-5.2,6.8-7.5
		c2.1-2.4,3.7-4.3,5.1-5.8c2.2-2.1,3.9-3.9,4.9-5.4c1-1.5,1.8-2.5,2.4-3.2c2.2-3.4,4-6.5,5.5-9.3c1.5-2.8,2.1-5.1,1.9-7l0.4-2.6
		c0.8-1.6,2.7-2.5,5.8-3c3.1-0.4,6.6-0.4,10.6-0.1c4,0.4,8.1,1.1,12.3,2.1c4.2,1,8,2.1,11.4,3.4c1.9,0.7,3.1,1.5,3.5,2.4
		c0.5,1.1,1,2.3,1.6,3.5c0.6,1.2,0.9,2.6,1.1,4.1c-0.1,1.8-1.7,4.4-4.8,7.8c-1.6,2-3.6,4.1-5.7,6.6c-2.2,2.4-4.8,5.1-8,8.2
		l11.7,10.1l74.2-13.8l0.8,0.8c3.1,1.1,5.4,2.8,7.1,5c1.7,2.2,2.9,4.5,3.7,7c0.8,2.5,1.3,5,1.5,7.4c0.2,2.5,0.3,4.6,0.4,6.5
		c0,0.9,0,2-0.1,3.1c-0.1,1.2,0.4,1.7,1.3,1.7l-63.2,18.2l-2.4,2.7l-0.1,1.9c-0.1,5.3-0.2,10.4-0.3,15.4c-0.1,5-0.1,10,0.1,15
		c0,5.3,0.1,10.4,0.3,15.2c0.1,4.8,0,9.7-0.3,14.5c-0.2,2.5-1.3,4.6-3.4,6.3c-2.1,1.7-4.8,3-8,3.8c-3.2,0.8-6.8,1.2-10.7,1
		c-3.9-0.2-7.6-0.9-11.2-2.2l-4.4-1.6l-4.8-1.8c-1.6-0.6-3.6-1.4-6-2.5l3.4-44.2L236.5,407.1z"/>
	<path class="st0" d="M316.2,458.6c3.2-6.2,7.6-13.5,13.1-21.7c5.5-8.3,11.5-16.8,18-25.7c6.5-8.9,13-17,19.4-24.2
		c6.4-7.2,12.3-13.1,17.7-17.4c5.4-4.4,9.6-6.2,12.8-5.5c3.9,0.9,7.7,2.3,11.6,4.2c3.9,1.9,7.4,4.1,10.5,6.5c3.1,2.4,5.7,5,7.6,7.6
		c1.9,2.7,3,5.2,3.1,7.5c0.4,0.6,0.5,1.6,0.2,3c-0.2,1.4-0.3,2.1-0.1,2.1c-5.6,5.6-10.7,11.2-15.4,16.9c-4.7,5.7-9.2,11.5-13.4,17.3
		c-4.2,5.8-8.2,11.7-12.1,17.6c-3.9,5.9-7.8,11.8-11.6,17.8c-0.4,0.8-0.7,1.5-1,2c-0.3,0.5-0.7,1.1-1.2,1.7l-2.5,3.9l-4.6,7.1
		c-1.6,2.4-3.3,4.8-5,7.2c-1.7,2.3-3.6,4.8-5.6,7.3c-1.4,2-3.9,3.2-7.6,3.5c-3.7,0.4-7.9,0-12.6-1.1c-3.4-0.8-6.6-2.2-9.6-4.1
		c-3.1-2-5.8-4.2-8.1-6.6c-2.3-2.4-4.3-4.9-5.8-7.3c-1.5-2.5-2.3-4.7-2.4-6.7C311.4,469.1,313,464.8,316.2,458.6z"/>
	<path class="st0" d="M473.1,458.5c-4.3,2.9-7.1,6.8-8.6,11.5c-1.5,4.8-2.8,10.1-3.9,16.1l-0.7,3.1c-0.6,2.6-1.2,5.1-1.8,7.7
		c-0.5,2.6-1.4,4.9-2.5,7c-1.1,2.1-2.7,4-4.6,5.6c-2,1.6-4.8,2.8-8.4,3.5c-3.6-0.7-7.1-1.6-10.5-2.9c-3.4-1.3-6.9-2.9-10.4-5
		c-5.5-3.7-9.8-10.6-12.8-20.7c0.2-0.7,0.1-1.3-0.4-1.8c-0.5-0.5-1.1-0.6-1.8-0.3l1.1-1.8l43.9-82.3l0.1-2.1l-6.2-23.8l9.2-3.2
		l86.2,3.8c6.2,0.3,11.9,1.8,17.1,4.5c5.2,2.7,9.8,6,13.8,9.8s7.2,7.8,9.7,12.1c2.5,4.2,4.2,7.9,5.1,11.1c0.9,2.6,1,5.3,0.3,7.9
		c-0.7,2.6-2,5.3-3.7,7.9c-1.8,2.6-3.9,5.1-6.4,7.6c-2.5,2.5-5.2,4.8-8.1,6.9c-1.8,1.1-3.5,2.3-5.2,3.4c-1.7,1.1-3.5,2.2-5.4,3.1
		c-1.8,1-4.3,2-7.6,3c-3.3,1.1-7.5,2.1-12.5,3.1l-1.1,0.7c-5.2,1.7-11.9,2.9-20.1,3.6c-8.1,0.8-17.7,0.9-28.7,0.4
		c-1.4-0.1-2.8-0.2-4.4-0.3c-1.5-0.2-3.3-0.3-5.4-0.4L473.1,458.5z M503.9,397.8c-0.3,0-1.2,0.8-2.6,2.3c-1.4,1.6-2.8,3.5-4.3,5.6
		c-1.5,2.2-2.9,4.4-4.3,6.8c-1.4,2.4-2.4,4.3-3,5.8l-0.3,0.2c-0.4,1-0.5,2.2-0.3,3.5c0.2,1.3,0.5,2.1,0.8,2.5l9.3,5.3
		c4.1,0.2,8.8-0.3,13.9-1.6c5.1-1.2,9.9-3,14.2-5.3c4.3-2.3,7.8-5.1,10.3-8.3c2.6-3.2,3.3-6.7,2.3-10.4l-9.3-5.3L503.9,397.8z"/>
	<path class="st0" d="M657,422.5c-2.3,4.6-3,9.4-2,14.3c1,4.9,2.5,10.2,4.4,16l0.9,3c0.7,2.5,1.4,5.1,2.2,7.6
		c0.8,2.5,1.2,4.9,1.2,7.3c0,2.4-0.4,4.8-1.3,7.2c-0.9,2.4-2.8,4.8-5.7,7.2c-3.5,1.2-7,2-10.6,2.5c-3.6,0.5-7.4,0.8-11.5,0.7
		c-6.6-0.5-13.7-4.5-21.3-11.9c-0.2-0.7-0.6-1.2-1.3-1.4s-1.3,0-1.7,0.6l0.1-2.1l-1.6-93.3l-0.9-1.8l-17-17.8l6.5-7.3l77.1-38.6
		c5.5-2.8,11.3-4.2,17.1-4.4c5.9-0.2,11.5,0.5,16.8,1.8s10.1,3.3,14.3,5.8c4.2,2.5,7.5,4.9,9.8,7.2c2.1,1.8,3.4,4.1,4.1,6.8
		c0.7,2.7,0.8,5.5,0.6,8.7c-0.3,3.1-0.9,6.4-1.9,9.8c-1,3.4-2.2,6.7-3.7,9.9c-1,1.8-2,3.7-2.9,5.5c-0.9,1.8-2,3.6-3.2,5.4
		c-1.1,1.7-2.8,3.8-5.2,6.4c-2.4,2.5-5.5,5.5-9.5,8.8l-0.6,1.2c-3.8,4-9,8.3-15.8,12.9c-6.7,4.6-15,9.4-24.9,14.3
		c-1.2,0.6-2.6,1.2-4,1.8c-1.4,0.6-3.1,1.4-4.9,2.3L657,422.5z M654.5,354.5c-0.3,0.2-0.7,1.3-1.1,3.3c-0.4,2-0.8,4.4-1,7
		c-0.2,2.6-0.4,5.3-0.5,8c-0.1,2.7,0,4.9,0.2,6.5l-0.1,0.3c0.2,1.1,0.6,2.1,1.4,3.2c0.8,1,1.4,1.6,1.9,1.8l10.7,0.1
		c3.7-1.8,7.5-4.6,11.4-8.1c3.9-3.6,7.2-7.4,9.8-11.5c2.7-4.1,4.3-8.2,5-12.3c0.7-4.1-0.4-7.5-3.1-10.2l-10.7-0.1L654.5,354.5z"/>
	<path class="st0" d="M769.1,359.7c-4.3-5.6-9-12.6-14.2-21c-5.2-8.5-10.4-17.5-15.7-27.2c-5.3-9.7-9.9-18.9-13.8-27.8
		c-3.9-8.9-6.7-16.6-8.4-23.4c-1.7-6.7-1.6-11.4,0.5-13.9c2.4-3.1,5.4-6,8.7-8.8c3.4-2.7,6.8-5,10.3-6.8c3.5-1.8,6.9-3.1,10.1-3.7
		c3.2-0.6,5.9-0.5,8.1,0.3c0.7-0.1,1.7,0.3,2.8,1c1.1,0.8,1.8,1.1,1.9,1c2.7,7.4,5.7,14.4,8.9,21.1c3.2,6.7,6.5,13.1,10,19.4
		c3.5,6.3,7.1,12.4,10.8,18.4c3.7,6,7.5,12,11.3,18.1c0.6,0.7,1,1.3,1.4,1.8c0.4,0.5,0.7,1.1,1,1.8l2.5,3.9l4.5,7.2
		c1.5,2.5,3,5,4.4,7.6c1.4,2.5,2.8,5.2,4.3,8.1c1.2,2.1,1.2,4.9,0,8.4c-1.2,3.5-3.3,7.2-6.3,11c-2.1,2.7-4.7,5-7.8,7
		c-3.1,2-6.2,3.5-9.4,4.6c-3.2,1.1-6.2,1.8-9.1,2.2c-2.9,0.3-5.3,0.1-7.1-0.6C776.6,368.4,773.4,365.2,769.1,359.7z"/>
	<path class="st0" d="M820.1,292.6c-2.1-2.2-4.5-4.9-7.2-7.9c-2.8-3-5.6-6.3-8.5-9.8c-2.9-3.5-5.6-6.8-8-9.8c-2.4-3.1-4.4-5.6-6-7.7
		c-1.6-2.1-2.4-3.3-2.3-3.7c-0.1-1.2-0.1-2.3,0.1-3.2c0.2-0.9,0.4-1.9,0.5-2.9c0.1-3.4,0.3-6.9,0.4-10.3c0.1-3.4,0.1-6.8-0.2-10
		c-0.3-3.2-0.9-6.2-2-9.1c-1-2.8-2.6-5.4-4.7-7.8l-0.9-0.1c0.1,0.1-0.6,0.1-2.1-0.1c-1.5-0.1-3.1-0.3-4.7-0.5l-0.2-0.2
		c-1.3,0.3-2.4,0.3-3.2,0.2c-0.8-0.1-1.4-0.2-1.8-0.3l-0.8-0.3c-0.9-0.3-1.7-0.6-2.6-0.9c-0.8-0.3-1.6-0.5-2.3-0.4
		c-2.8-1.2-3.4-4-1.8-8.6c1.6-4.6,4.2-9.7,7.8-15.4c3.6-5.7,7.7-11.5,12.2-17.3c4.5-5.9,8.3-10.6,11.2-14.2l2.9-3.6
		c8.1-10,15.8-17.3,23.2-21.8c7.3-4.5,14.9-5.1,22.9-1.7l0.8,0.3c0.3,0.2,0.6,0.3,0.9,0.3c0.4,0,0.8,0.2,1.2,0.8
		c0.5-0.3,0.7-0.4,0.9-0.5c0.1,0,0.4-0.1,0.7-0.3c-0.3,0.2-1.3,1.2-3,3.2l-2.3,2.8l-5.9,7.2c-3.9,4.8-7.6,9.9-11,15.2
		c-3.4,5.3-6,10.4-7.6,15.1c-1.6,4.8-2,9.1-1.2,13c0.8,3.9,3.5,6.7,8.1,8.4l1.9,0.5c0.3,0.2,0.7,0.3,1.3,0.2c0.6-0.1,1,0,1.1,0.1
		l9.1-3.9c6.4-7.4,11.7-12.7,15.8-15.8c4.1-3.1,8.6-3.9,13.5-2.3c0.9,0.3,1.7,0.6,2.4,0.9c0.7,0.4,1.5,0.7,2.4,0.9l0,0.4l2.2,3.8
		c1,1.5,1.6,2.2,1.7,2l-33.2,40.9c-1.1,1.3-1.6,3-1.5,5.1c0.1,2.1,0.5,4.2,1.1,6.4c0.7,2.2,1.5,4.5,2.6,6.8c1.1,2.3,2.1,4.3,3,5.9
		l2.9,4.7l1,0.4l2.2,1.4l1.7,0c0.6,0.1,1.6-0.3,2.9-0.9c1.3-0.7,2.8-1.4,4.3-2.2c1.5-0.8,2.8-1.5,4-2.3c1.1-0.7,1.8-1.2,1.9-1.3
		l32.9-40.5c-1.2,2.1-1.2,3,0.1,2.7l1.2,1c5.4,2.4,8.2,6,8.3,10.9c0.1,4.9-1.3,10.5-4.4,16.7c-3.1,6.3-7.2,12.9-12.5,19.9
		c-5.3,7-10.5,13.8-15.9,20.4l-7.3,9c-0.9,1.1-1.6,1.9-2.2,2.5c-0.6,0.6-1.3,1.4-2.1,2.3l-1,1.2c-7.4,4.2-14.7,7-21.9,8.5
		c-7.2,1.5-13.5,1.2-18.8-1C823.6,296.2,822.1,294.8,820.1,292.6z"/>
	<path class="st0" d="M900.1,191c-0.8-0.8-1.6-2.1-2.4-4c-0.8-1.9-1.4-3.9-1.7-6.1c-0.3-2.2-0.3-4.2-0.1-6s1.1-3.1,2.4-3.8l25-12.4
		c0.1,0.7,0.9,1.3,2.3,1.7c1.4,0.5,2.8,0.9,4.2,1.4c1.4,0.5,2.9,0.7,4.4,0.8c1.6,0.1,3.4-0.1,5.4-0.7c2-0.5,4.4-1.4,7-2.7
		c2.3-1.1,4.9-2.8,7.6-4.9c2.8-2.1,5.1-4.5,7.1-7c1.9-2.5,3.3-5,4-7.4c0.7-2.5,0.1-4.5-1.9-6.2c-0.2-0.3-0.4-0.5-0.7-0.5
		c-0.3,0-0.5-0.2-0.7-0.5l-0.1-0.8l-4-1.2l-50.7-4c-1.3-0.3-3.3-1.6-5.9-3.8c-2.6-2.2-5-4.4-7-6.5c-6.2-6.7-8.9-13.9-8.1-21.5
		c0.8-7.6,4.1-15.2,9.9-22.8c5.8-7.6,13.4-14.9,22.8-22c9.5-7.1,19.7-13.4,30.8-18.9l3.5-1.7c1.2-0.6,2.6-1.2,4-1.8
		c1.4-0.6,3-1.3,4.7-2.2l9.3-4.6l0.2-0.1c6.9,0.3,12.8,0.7,17.9,1.2c5.1,0.6,9.6,2.7,13.6,6.5c1.2,1.2,2.3,3.3,3.3,6.4
		c1.1,3.1,1.7,6.4,2,9.9c0.3,3.5,0,6.8-1,10c-0.9,3.2-2.8,5.4-5.6,6.8c-0.5,0.2-0.9,0.4-1.4,0.6c-0.5,0.2-0.9,0.3-1.2,0.5l-1.2,0.6
		c-1.2,0.4-3.2,1-6,1.8c-2.9,0.8-5.8,1.7-8.8,2.6c-3,0.9-5.8,1.8-8.3,2.7c-2.5,0.9-4.1,1.5-4.7,1.8c-0.5-0.2-0.8-0.3-1.2-0.6
		c-0.3-0.2-0.7-0.5-1.3-0.8l-0.3-1.3c-0.2-0.3-0.5-0.7-1.2-1.2l-0.1-0.2c-0.7-0.6-1.1-1.3-1.2-2.1c-0.1-0.8-0.9-1.6-2.2-2.5
		L952,63.3c-6.5,3.2-11.8,6.9-16,11c-4.2,4.1-6.9,8.8-8.2,14l5,4.2c3,0.2,5.8,0.4,8.5,0.4c2.7,0,5.3,0.1,8,0.4
		c5.9,0.2,11.5,0.4,17,0.6c5.5,0.3,10.7,0.8,15.5,1.6c4.8,0.8,9.2,2,13.3,3.5c4,1.6,7.6,3.9,10.7,7c5.7,6.6,8.2,13.8,7.4,21.6
		c-0.8,7.8-4,15.6-9.4,23.4c-5.5,7.8-12.8,15.3-22.1,22.6c-9.3,7.3-19.4,13.6-30.3,19.1c-4.2,2.1-8.8,3.6-13.9,4.6
		c-5.1,1-10,1.4-14.8,1.3c-4.8-0.1-9.2-0.8-13.3-2.1C905.2,195,902.2,193.3,900.1,191z"/>
</g>
<path class="st1" d="M448,47.4c9.3,1.4,18.5,3,27.7,4.7l13.8,2.7l13.7,2.8c18.3,3.8,36.4,7.9,54.5,12.3l16.5,4l-12,15.2
	c-12,15.1-24.7,29.5-37.9,43.4c-13.2,13.8-27,27.1-41.3,39.9c-14.3,12.7-29.1,24.9-44.7,36.4c-7.8,5.7-15.7,11.2-23.9,16.5
	c-8.2,5.3-16.6,10.3-25.6,14.8c4.8-8.8,10.2-17,15.8-25c5.6-8,11.4-15.7,17.4-23.3c12-15.1,24.8-29.4,38.1-43.2
	c13.3-13.8,27.1-27,41.4-39.7c14.3-12.7,29.2-24.8,44.8-36.2l4.5,19.1c-17.3-6.8-34.6-13.8-51.8-21.1l-12.9-5.5l-12.8-5.7
	C464.9,55.5,456.4,51.6,448,47.4z"/>
<path class="st2" d="M553.7,42.7c9.4,0.7,18.7,1.7,28,2.7l13.9,1.6l13.9,1.8c18.5,2.5,36.9,5.3,55.3,8.3l16.7,2.8l-10.9,16
	c-10.8,16-22.5,31.2-34.7,46c-12.2,14.8-25,29-38.3,42.8c-13.3,13.8-27.2,27-41.9,39.5c-7.3,6.3-14.9,12.4-22.7,18.2
	c-7.8,5.8-15.8,11.5-24.4,16.6c4.1-9.1,9-17.7,13.9-26.1c5-8.4,10.3-16.5,15.7-24.5c10.9-15.9,22.6-31.2,34.8-45.9
	c12.3-14.7,25-28.9,38.4-42.6c13.4-13.7,27.3-26.9,42-39.4l5.9,18.7c-17.8-5.5-35.5-11.2-53.2-17.2l-13.2-4.6L580,52.7
	C571.2,49.5,562.4,46.2,553.7,42.7z"/>
</svg>
