<?xml version="1.0" encoding="utf-8"?>
<!-- Generator: Adobe Illustrator 24.2.1, SVG Export Plug-In . SVG Version: 6.00 Build 0)  -->
<svg version="1.1" id="Layer_1" xmlns="http://www.w3.org/2000/svg" xmlns:xlink="http://www.w3.org/1999/xlink" x="0px" y="0px"
	 viewBox="0 0 314.8 256.2" style="enable-background:new 0 0 314.8 256.2;" xml:space="preserve">
<style type="text/css">
	.st0{fill:#006BB6;}
	.st1{fill:#FF6454;}
</style>
<path class="st0" d="M72.6,47.4c9.3,1.4,18.5,3,27.7,4.7l13.8,2.7l13.7,2.8c18.3,3.8,36.4,7.9,54.5,12.3l16.5,4l-12,15.2
	c-12,15.1-24.7,29.5-37.9,43.4c-13.2,13.8-27,27.1-41.3,39.9c-14.3,12.7-29.1,24.9-44.7,36.4c-7.8,5.7-15.7,11.2-23.9,16.5
	c-8.2,5.3-16.6,10.3-25.6,14.8c4.8-8.8,10.2-17,15.8-25c5.6-8,11.4-15.7,17.4-23.3c12-15.1,24.8-29.4,38.1-43.2
	c13.3-13.8,27.1-27,41.4-39.7c14.3-12.7,29.2-24.8,44.8-36.2l4.5,19.1C158.1,85,140.8,78,123.6,70.7l-12.9-5.5l-12.8-5.7
	C89.5,55.5,81,51.6,72.6,47.4z"/>
<path class="st1" d="M178.3,42.7c9.4,0.7,18.7,1.7,28,2.7l13.9,1.6l13.9,1.8c18.5,2.5,36.9,5.3,55.3,8.3l16.7,2.8l-10.9,16
	c-10.8,16-22.5,31.2-34.7,46s-25,29-38.3,42.8s-27.2,27-41.9,39.5c-7.3,6.3-14.9,12.4-22.7,18.2s-15.8,11.5-24.4,16.6
	c4.1-9.1,9-17.7,13.9-26.1c5-8.4,10.3-16.5,15.7-24.5c10.9-15.9,22.6-31.2,34.8-45.9c12.3-14.7,25-28.9,38.4-42.6s27.3-26.9,42-39.4
	l5.9,18.7C266.1,73.7,248.4,68,230.7,62l-13.2-4.6l-12.9-4.7C195.8,49.5,187,46.2,178.3,42.7z"/>
</svg>
