<?xml version="1.0" standalone="no"?>
<!DOCTYPE svg PUBLIC "-//W3C//DTD SVG 20010904//EN"
 "http://www.w3.org/TR/2001/REC-SVG-20010904/DTD/svg10.dtd">
<svg version="1.0" xmlns="http://www.w3.org/2000/svg"
 width="1600.000000pt" height="1600.000000pt" viewBox="0 0 1600.000000 1600.000000"
 preserveAspectRatio="xMidYMid meet">
<metadata>
Created by potrace 1.14, written by Peter Selinger 2001-2017
</metadata>
<g transform="translate(0.000000,1600.000000) scale(0.100000,-0.100000)"
fill="#000000" stroke="none">
<path d="M9015 13074 c113 -50 580 -231 925 -359 190 -70 359 -133 375 -140
17 -7 57 -22 90 -33 33 -11 168 -59 300 -107 132 -48 348 -124 480 -170 132
-45 287 -99 345 -119 381 -133 1191 -402 1725 -573 61 -19 113 -38 117 -42 4
-3 -41 -50 -100 -103 -127 -115 -169 -154 -371 -346 -84 -81 -177 -169 -205
-195 -300 -283 -1041 -1041 -1411 -1443 -88 -96 -179 -195 -225 -244 -8 -9
-46 -51 -85 -94 -38 -43 -75 -84 -81 -90 -23 -24 -192 -216 -244 -276 -30 -35
-60 -68 -66 -74 -6 -6 -58 -65 -115 -132 -102 -117 -121 -140 -269 -314 -40
-47 -82 -96 -94 -110 -20 -23 -199 -238 -238 -285 -9 -11 -44 -54 -78 -95 -34
-41 -69 -84 -78 -95 -67 -81 -410 -514 -488 -615 -679 -883 -1131 -1529 -1659
-2370 -69 -110 -130 -209 -145 -235 -10 -16 -67 -113 -127 -215 -60 -102 -123
-210 -140 -240 -17 -30 -59 -107 -95 -170 -144 -257 -418 -797 -418 -825 0 -9
32 9 175 98 645 401 1411 978 2250 1692 110 93 205 174 211 180 6 6 39 35 74
65 34 30 75 66 90 80 15 14 41 37 57 51 131 115 295 265 488 444 59 55 121
113 139 129 359 332 1130 1108 1541 1550 61 65 121 130 135 145 14 14 74 80
135 146 60 66 114 125 120 131 20 22 160 178 178 198 10 12 48 54 85 95 37 41
74 83 82 93 8 11 29 34 45 51 41 44 310 355 498 577 51 59 318 382 377 455 36
44 67 82 70 85 3 3 21 25 40 50 19 25 37 47 40 50 3 3 24 27 45 55 22 27 47
59 57 70 454 558 1052 1374 1573 2145 157 232 260 383 352 517 35 50 60 94 56
96 -5 3 -39 10 -78 16 -118 19 -135 22 -310 51 -93 16 -188 31 -210 34 -22 4
-76 13 -120 21 -44 7 -98 16 -120 20 -22 3 -107 17 -190 30 -152 25 -325 53
-380 61 -16 3 -68 11 -115 19 -47 8 -107 17 -135 20 -27 4 -57 8 -65 10 -8 2
-35 7 -60 10 -25 3 -67 10 -95 15 -27 5 -84 14 -125 20 -126 18 -132 19 -230
34 -52 8 -115 17 -140 21 -25 3 -70 10 -100 15 -30 5 -77 12 -105 16 -27 3
-58 8 -68 10 -10 1 -70 10 -135 19 -64 9 -128 18 -142 20 -14 3 -77 12 -140
20 -116 16 -164 23 -210 30 -22 3 -255 35 -375 51 -22 3 -51 7 -65 9 -28 4
-118 15 -165 20 -16 2 -64 8 -105 14 -41 5 -97 13 -125 16 -27 3 -59 8 -70 10
-11 2 -45 7 -75 10 -30 3 -66 7 -80 9 -30 5 -133 18 -250 31 -30 3 -71 8 -90
10 -56 7 -122 15 -170 21 -45 5 -95 11 -160 19 -19 2 -57 7 -85 10 -27 3 -66
7 -85 10 -19 2 -60 7 -90 10 -30 2 -95 9 -145 15 -49 5 -117 12 -150 15 -33 3
-76 7 -95 10 -19 2 -64 7 -100 10 -36 3 -81 8 -100 10 -19 2 -62 7 -95 10 -69
6 -142 12 -235 20 -36 4 -83 8 -106 10 -22 3 -74 7 -115 10 -40 3 -101 7 -134
10 l-60 5 60 -26z"/>
<path d="M3631 12783 c178 -89 357 -174 654 -313 138 -64 585 -268 660 -300
43 -19 111 -49 190 -85 28 -13 83 -37 124 -55 40 -17 105 -46 145 -64 39 -18
269 -117 511 -221 242 -103 458 -195 480 -205 71 -31 816 -341 920 -382 55
-22 116 -46 135 -55 19 -8 44 -19 55 -24 11 -4 79 -31 150 -60 72 -28 131 -52
133 -53 1 -2 -107 -90 -240 -197 -357 -284 -1021 -842 -1198 -1005 -19 -18
-73 -65 -120 -106 -47 -40 -89 -78 -95 -84 -5 -6 -48 -44 -95 -85 -47 -41 -87
-77 -90 -80 -7 -8 -260 -239 -288 -264 -13 -11 -50 -45 -81 -75 -32 -30 -116
-109 -186 -175 -71 -66 -187 -176 -259 -245 -205 -196 -954 -947 -1131 -1134
-88 -93 -178 -188 -200 -211 -147 -153 -549 -595 -710 -779 -33 -38 -67 -77
-75 -86 -14 -15 -112 -128 -156 -180 -12 -14 -55 -64 -95 -111 -41 -47 -85
-99 -99 -115 -14 -16 -58 -69 -99 -119 -40 -49 -76 -92 -80 -95 -3 -3 -53 -63
-111 -135 -57 -71 -107 -132 -110 -135 -4 -4 -94 -116 -153 -190 -98 -123
-206 -262 -257 -330 -35 -47 -67 -87 -70 -90 -3 -3 -23 -30 -45 -60 -22 -30
-42 -57 -45 -60 -7 -6 -239 -321 -291 -394 -19 -26 -44 -62 -56 -80 -12 -17
-45 -62 -72 -101 -131 -183 -558 -827 -570 -859 -2 -6 -21 -37 -43 -68 -21
-31 -38 -59 -38 -63 0 -3 -11 -24 -26 -46 -14 -22 -33 -55 -43 -72 -103 -180
-129 -227 -125 -227 6 0 286 143 324 164 14 8 106 61 205 117 270 153 717 425
723 441 2 4 8 8 14 8 26 0 795 523 1173 798 266 194 911 685 935 712 3 3 23
19 45 36 22 16 45 34 51 39 7 6 20 17 30 25 167 133 313 252 329 267 11 10 43
37 72 59 29 23 76 62 105 86 29 25 130 110 223 189 207 174 708 613 776 678 9
9 49 45 89 81 122 110 169 152 370 340 68 63 139 130 159 148 268 249 1033
1007 1321 1308 228 237 394 416 690 739 30 33 57 62 60 65 14 14 262 294 384
435 122 139 168 193 273 315 18 21 220 265 316 381 80 96 606 756 792 994 17
21 50 62 74 92 24 30 41 56 40 58 -2 2 -101 27 -219 55 -118 29 -325 79 -458
111 -134 32 -254 61 -265 64 -12 2 -51 11 -87 20 -36 9 -72 18 -80 20 -36 8
-497 116 -520 122 -14 3 -33 8 -42 9 -9 2 -75 17 -145 34 -70 16 -159 37 -198
46 -115 25 -185 42 -275 63 -47 11 -96 22 -110 25 -14 2 -77 16 -140 31 -120
27 -123 28 -205 45 -27 6 -59 12 -70 15 -11 2 -54 11 -95 20 -41 9 -91 20
-110 25 -19 5 -51 12 -70 15 -19 3 -51 10 -70 15 -19 5 -46 11 -60 14 -14 3
-101 21 -195 41 -180 38 -1119 230 -1170 238 -40 7 -178 33 -295 57 -52 10
-147 28 -210 40 -63 11 -135 25 -160 30 -25 5 -61 11 -80 14 -19 4 -46 8 -60
11 -14 3 -78 14 -142 26 -64 11 -127 22 -140 24 -28 6 -142 25 -183 31 -16 3
-50 9 -75 14 -46 9 -85 15 -155 25 -22 3 -62 10 -90 15 -59 11 -116 20 -165
26 -19 2 -44 6 -55 8 -11 3 -42 7 -70 11 -48 5 -44 2 86 -62z"/>
</g>
</svg>
